#!OML:ASF I:\golf\golf\golf 2\Subject 1\2002-09-07\Subject1.ASF
:FULLY-SPECIFIED
:DEGREES
314
root -5.81755 17.9977 -3.89828 -166.006 -4.47206 -173.947
lowerback -10.7348 17.4116 15.9318
upperback -16.7883 19.0399 0.637627
thorax -8.10477 6.40456 -5.61701
lowerneck -7.84035 -20.173 -5.39197
upperneck 11.1125 -27.2323 1.62487
head 5.52178 -13.5505 -0.840358
rclavicle 5.56597e-014 8.50798e-014
rhumerus 112.789 25.3868 -50.4052
rradius 67.8675
rwrist 14.6855
rhand -36.6105 21.3569
rfingers 7.12502
rthumb -9.69884 -8.39979
lclavicle 5.56597e-014 8.50798e-014
lhumerus 73.1791 21.2593 69.0416
lradius 80.6825
lwrist 30.0083
lhand -26.9468 13.5714
lfingers 7.12502
lthumb -180.369 -136.449
rfemur 22.9821 -9.48445 21.8726
rtibia -2.54444e-014
rfoot 39.9952 -30.6907
rtoes 26.3174
lfemur -28.4425 -19.2462 -11.9774
ltibia 28.2101
lfoot 34.4666 -46.6745
ltoes 50.6049
315
root -5.81978 17.9912 -3.92812 -165.98 -4.88316 -173.948
lowerback -10.8718 17.4036 15.7965
upperback -16.8555 19.0122 0.548833
thorax -8.1221 6.39878 -5.63171
lowerneck -8.00386 -20.2741 -5.41544
upperneck 11.3996 -27.3357 1.38035
head 5.6095 -13.6098 -0.947331
rclavicle -1.66582e-013 -1.51076e-013
rhumerus 113.19 24.8789 -50.2932
rradius 68.477
rwrist 14.9989
rhand -37.7972 21.639
rfingers 7.12502
rthumb -10.8437 -8.06101
lclavicle -1.66582e-013 -1.51076e-013
lhumerus 73.6567 21.7011 68.8106
lradius 81.3075
lwrist 29.0466
lhand -27.6773 13.5467
lfingers 7.12502
lthumb -181.074 -136.476
rfemur 23.041 -9.66337 21.8404
rtibia 0
rfoot 40.6594 -29.5716
rtoes 26.0009
lfemur -28.5467 -19.3411 -11.9657
ltibia 28.4252
lfoot 34.6817 -46.9986
ltoes 50.4289
316
root -5.81892 17.9845 -3.95791 -165.975 -5.25936 -173.966
lowerback -11.038 17.376 15.634
upperback -16.8808 18.9566 0.490629
thorax -8.09705 6.39168 -5.59802
lowerneck -8.20488 -20.3246 -5.44795
upperneck 11.6442 -27.3574 1.14462
head 5.68965 -13.6277 -1.04473
rclavicle 6.91771e-014 9.54166e-015
rhumerus 113.718 24.3491 -50.2733
rradius 68.8257
rwrist 14.8923
rhand -38.7108 22.0241
rfingers 7.12502
rthumb -11.7248 -7.62779
lclavicle 6.91771e-014 9.54166e-015
lhumerus 74.2146 22.0547 68.7515
lradius 81.8315
lwrist 28.335
lhand -28.2818 14.0446
lfingers 7.12502
lthumb -181.658 -135.982
rfemur 23.1232 -9.82077 21.8009
rtibia 3.49861e-014
rfoot 41.0406 -28.7873
rtoes 25.9326
lfemur -28.625 -19.4825 -11.9533
ltibia 28.6276
lfoot 35.2947 -46.7519
ltoes 50.7867
317
root -5.82246 17.975 -3.98688 -166.063 -5.54773 -174.042
lowerback -11.1422 17.3383 15.5312
upperback -16.8638 18.906 0.436316
thorax -8.03853 6.39096 -5.59516
lowerneck -8.23919 -20.3236 -5.47242
upperneck 11.7333 -27.3148 0.952403
head 5.69781 -13.6173 -1.09624
rclavicle 6.36111e-014 2.78299e-014
rhumerus 113.984 23.9694 -50.3221
rradius 69.4059
rwrist 14.3535
rhand -39.3438 22.7836
rfingers 7.12502
rthumb -12.3351 -6.83257
lclavicle 6.36111e-014 2.78299e-014
lhumerus 74.7506 22.3302 68.7662
lradius 82.1872
lwrist 27.6725
lhand -28.6796 14.2259
lfingers 7.12502
lthumb -182.042 -135.804
rfemur 23.3063 -9.90965 21.6655
rtibia -4.45278e-014
rfoot 41.5551 -27.9968
rtoes 25.5566
lfemur -28.5628 -19.5608 -12.0962
ltibia 28.8109
lfoot 36.3417 -45.9477
ltoes 51.842
318
root -5.82801 17.9664 -4.01484 -166.139 -5.87155 -174.138
lowerback -11.2424 17.2951 15.4667
upperback -16.8724 18.8433 0.35544
thorax -7.9956 6.37403 -5.64122
lowerneck -8.21918 -20.2998 -5.3918
upperneck 11.8429 -27.2535 0.692954
head 5.6805 -13.6026 -1.16668
rclavicle 4.6118e-014 2.54444e-014
rhumerus 114.092 23.7837 -50.4185
rradius 69.9706
rwrist 14.1407
rhand -40.2394 23.3981
rfingers 7.12502
rthumb -13.1986 -6.16412
lclavicle 4.6118e-014 2.54444e-014
lhumerus 75.1841 22.5499 68.6632
lradius 82.3467
lwrist 26.8317
lhand -29.5638 13.9376
lfingers 7.12502
lthumb -182.896 -136.102
rfemur 23.4927 -10.0383 21.5259
rtibia 0
rfoot 42.019 -27.1702
rtoes 25.1583
lfemur -28.5084 -19.5458 -12.28
ltibia 28.9739
lfoot 37.1137 -45.628
ltoes 52.4956
319
root -5.83128 17.9589 -4.03741 -166.097 -6.27813 -174.208
lowerback -11.401 17.2699 15.428
upperback -16.9384 18.7768 0.235718
thorax -7.97108 6.33892 -5.72922
lowerneck -8.24599 -20.2896 -5.30282
upperneck 12.0211 -27.2156 0.426661
head 5.69113 -13.5986 -1.25215
rclavicle -4.8901e-014 -6.44062e-014
rhumerus 114.188 23.6131 -50.5463
rradius 70.2838
rwrist 14.327
rhand -41.4834 23.672
rfingers 7.12502
rthumb -14.3974 -5.80862
lclavicle -4.8901e-014 -6.44062e-014
lhumerus 75.5996 22.7393 68.5121
lradius 82.3821
lwrist 26.0752
lhand -30.6349 13.4865
lfingers 7.12502
lthumb -183.931 -136.57
rfemur 23.5354 -10.2419 21.4641
rtibia -2.8625e-014
rfoot 42.2698 -26.5091
rtoes 24.7388
lfemur -28.621 -19.4088 -12.3865
ltibia 29.1214
lfoot 37.9343 -45.7092
ltoes 52.7404
320
root -5.83181 17.9523 -4.05737 -166.045 -6.63316 -174.329
lowerback -11.5246 17.2433 15.3208
upperback -16.9931 18.7246 0.137118
thorax -7.97392 6.31831 -5.77219
lowerneck -8.2463 -20.3067 -5.50743
upperneck 12.1622 -27.225 0.439512
head 5.76506 -13.607 -1.24411
rclavicle -1.26427e-013 -7.39479e-014
rhumerus 114.247 23.4917 -50.6617
rradius 70.4454
rwrist 14.6078
rhand -42.6894 24.0148
rfingers 7.12502
rthumb -15.5593 -5.3793
lclavicle -1.26427e-013 -7.39479e-014
lhumerus 75.995 23.0239 68.376
lradius 82.2831
lwrist 25.4187
lhand -30.806 13.259
lfingers 7.12502
lthumb -184.096 -136.801
rfemur 23.5493 -10.414 21.358
rtibia 3.18055e-014
rfoot 42.5273 -26.0259
rtoes 24.6029
lfemur -28.7162 -19.2748 -12.5395
ltibia 29.2373
lfoot 38.9459 -45.5426
ltoes 53.1419
